<mxfile host="Electron" modified="2024-06-09T13:30:02.902Z" agent="Mozilla/5.0 (Windows NT 10.0; Win64; x64) AppleWebKit/537.36 (KHTML, like Gecko) draw.io/23.0.2 Chrome/120.0.6099.109 Electron/28.1.0 Safari/537.36" etag="sORPgWvvsQF9NAwY3yyJ" version="23.0.2" type="device">
  <diagram id="C5RBs43oDa-KdzZeNtuy" name="Page-1">
    <mxGraphModel dx="1381" dy="1977" grid="1" gridSize="10" guides="1" tooltips="1" connect="1" arrows="1" fold="1" page="1" pageScale="1" pageWidth="827" pageHeight="1169" math="0" shadow="0">
      <root>
        <mxCell id="WIyWlLk6GJQsqaUBKTNV-0" />
        <mxCell id="WIyWlLk6GJQsqaUBKTNV-1" parent="WIyWlLk6GJQsqaUBKTNV-0" />
        <mxCell id="rhfyWi41nhmpNJ9Z3OVx-3" style="edgeStyle=orthogonalEdgeStyle;rounded=0;orthogonalLoop=1;jettySize=auto;html=1;exitX=1;exitY=0.5;exitDx=0;exitDy=0;entryX=0.5;entryY=0;entryDx=0;entryDy=0;" edge="1" parent="WIyWlLk6GJQsqaUBKTNV-1" source="WIyWlLk6GJQsqaUBKTNV-6" target="rhfyWi41nhmpNJ9Z3OVx-2">
          <mxGeometry relative="1" as="geometry" />
        </mxCell>
        <mxCell id="rhfyWi41nhmpNJ9Z3OVx-31" value="&lt;font style=&quot;font-size: 17px;&quot;&gt;Admin&lt;/font&gt;" style="edgeLabel;html=1;align=center;verticalAlign=middle;resizable=0;points=[];" vertex="1" connectable="0" parent="rhfyWi41nhmpNJ9Z3OVx-3">
          <mxGeometry x="-0.3362" y="1" relative="1" as="geometry">
            <mxPoint as="offset" />
          </mxGeometry>
        </mxCell>
        <mxCell id="WIyWlLk6GJQsqaUBKTNV-6" value="Admin&lt;br&gt;&amp;nbsp; or&amp;nbsp;&lt;br&gt;Client" style="rhombus;whiteSpace=wrap;html=1;shadow=0;fontFamily=Helvetica;fontSize=12;align=center;strokeWidth=1;spacing=6;spacingTop=-4;" parent="WIyWlLk6GJQsqaUBKTNV-1" vertex="1">
          <mxGeometry x="744" y="-1070" width="120" height="100" as="geometry" />
        </mxCell>
        <mxCell id="WIyWlLk6GJQsqaUBKTNV-8" value="No" style="rounded=0;html=1;jettySize=auto;orthogonalLoop=1;fontSize=11;endArrow=block;endFill=0;endSize=8;strokeWidth=1;shadow=0;labelBackgroundColor=none;edgeStyle=orthogonalEdgeStyle;" parent="WIyWlLk6GJQsqaUBKTNV-1" edge="1">
          <mxGeometry x="0.3333" y="20" relative="1" as="geometry">
            <mxPoint as="offset" />
            <mxPoint x="220" y="370" as="sourcePoint" />
            <mxPoint x="220" y="430" as="targetPoint" />
          </mxGeometry>
        </mxCell>
        <mxCell id="WIyWlLk6GJQsqaUBKTNV-9" value="Yes" style="edgeStyle=orthogonalEdgeStyle;rounded=0;html=1;jettySize=auto;orthogonalLoop=1;fontSize=11;endArrow=block;endFill=0;endSize=8;strokeWidth=1;shadow=0;labelBackgroundColor=none;" parent="WIyWlLk6GJQsqaUBKTNV-1" edge="1">
          <mxGeometry y="10" relative="1" as="geometry">
            <mxPoint as="offset" />
            <mxPoint x="270" y="330" as="sourcePoint" />
            <mxPoint x="320" y="330" as="targetPoint" />
          </mxGeometry>
        </mxCell>
        <mxCell id="rhfyWi41nhmpNJ9Z3OVx-1" style="edgeStyle=orthogonalEdgeStyle;rounded=0;orthogonalLoop=1;jettySize=auto;html=1;exitX=0.5;exitY=1;exitDx=0;exitDy=0;entryX=0.5;entryY=0;entryDx=0;entryDy=0;" edge="1" parent="WIyWlLk6GJQsqaUBKTNV-1" source="rhfyWi41nhmpNJ9Z3OVx-0" target="WIyWlLk6GJQsqaUBKTNV-6">
          <mxGeometry relative="1" as="geometry" />
        </mxCell>
        <mxCell id="rhfyWi41nhmpNJ9Z3OVx-0" value="Start" style="ellipse;whiteSpace=wrap;html=1;" vertex="1" parent="WIyWlLk6GJQsqaUBKTNV-1">
          <mxGeometry x="744" y="-1160" width="120" height="50" as="geometry" />
        </mxCell>
        <mxCell id="rhfyWi41nhmpNJ9Z3OVx-5" style="edgeStyle=orthogonalEdgeStyle;rounded=0;orthogonalLoop=1;jettySize=auto;html=1;exitX=0.5;exitY=1;exitDx=0;exitDy=0;entryX=0.5;entryY=0;entryDx=0;entryDy=0;" edge="1" parent="WIyWlLk6GJQsqaUBKTNV-1" source="rhfyWi41nhmpNJ9Z3OVx-2" target="rhfyWi41nhmpNJ9Z3OVx-4">
          <mxGeometry relative="1" as="geometry" />
        </mxCell>
        <mxCell id="rhfyWi41nhmpNJ9Z3OVx-2" value="Menu" style="rounded=1;whiteSpace=wrap;html=1;" vertex="1" parent="WIyWlLk6GJQsqaUBKTNV-1">
          <mxGeometry x="1135" y="-980" width="100" height="40" as="geometry" />
        </mxCell>
        <mxCell id="rhfyWi41nhmpNJ9Z3OVx-7" style="edgeStyle=orthogonalEdgeStyle;rounded=0;orthogonalLoop=1;jettySize=auto;html=1;exitX=0;exitY=0.5;exitDx=0;exitDy=0;entryX=0.5;entryY=0;entryDx=0;entryDy=0;" edge="1" parent="WIyWlLk6GJQsqaUBKTNV-1" source="rhfyWi41nhmpNJ9Z3OVx-4" target="rhfyWi41nhmpNJ9Z3OVx-6">
          <mxGeometry relative="1" as="geometry" />
        </mxCell>
        <mxCell id="rhfyWi41nhmpNJ9Z3OVx-14" value="Add&amp;nbsp;" style="edgeLabel;html=1;align=center;verticalAlign=middle;resizable=0;points=[];" vertex="1" connectable="0" parent="rhfyWi41nhmpNJ9Z3OVx-7">
          <mxGeometry x="-0.4" y="1" relative="1" as="geometry">
            <mxPoint as="offset" />
          </mxGeometry>
        </mxCell>
        <mxCell id="rhfyWi41nhmpNJ9Z3OVx-11" style="edgeStyle=orthogonalEdgeStyle;rounded=0;orthogonalLoop=1;jettySize=auto;html=1;exitX=1;exitY=0.5;exitDx=0;exitDy=0;" edge="1" parent="WIyWlLk6GJQsqaUBKTNV-1" source="rhfyWi41nhmpNJ9Z3OVx-4" target="rhfyWi41nhmpNJ9Z3OVx-10">
          <mxGeometry relative="1" as="geometry" />
        </mxCell>
        <mxCell id="rhfyWi41nhmpNJ9Z3OVx-17" value="Profits" style="edgeLabel;html=1;align=center;verticalAlign=middle;resizable=0;points=[];" vertex="1" connectable="0" parent="rhfyWi41nhmpNJ9Z3OVx-11">
          <mxGeometry x="-0.4353" relative="1" as="geometry">
            <mxPoint as="offset" />
          </mxGeometry>
        </mxCell>
        <mxCell id="rhfyWi41nhmpNJ9Z3OVx-12" style="edgeStyle=orthogonalEdgeStyle;rounded=0;orthogonalLoop=1;jettySize=auto;html=1;exitX=0.5;exitY=1;exitDx=0;exitDy=0;" edge="1" parent="WIyWlLk6GJQsqaUBKTNV-1" source="rhfyWi41nhmpNJ9Z3OVx-4" target="rhfyWi41nhmpNJ9Z3OVx-8">
          <mxGeometry relative="1" as="geometry" />
        </mxCell>
        <mxCell id="rhfyWi41nhmpNJ9Z3OVx-15" value="Remove" style="edgeLabel;html=1;align=center;verticalAlign=middle;resizable=0;points=[];" vertex="1" connectable="0" parent="rhfyWi41nhmpNJ9Z3OVx-12">
          <mxGeometry x="0.05" y="3" relative="1" as="geometry">
            <mxPoint as="offset" />
          </mxGeometry>
        </mxCell>
        <mxCell id="rhfyWi41nhmpNJ9Z3OVx-13" style="edgeStyle=orthogonalEdgeStyle;rounded=0;orthogonalLoop=1;jettySize=auto;html=1;exitX=0.5;exitY=1;exitDx=0;exitDy=0;" edge="1" parent="WIyWlLk6GJQsqaUBKTNV-1" source="rhfyWi41nhmpNJ9Z3OVx-4" target="rhfyWi41nhmpNJ9Z3OVx-9">
          <mxGeometry relative="1" as="geometry" />
        </mxCell>
        <mxCell id="rhfyWi41nhmpNJ9Z3OVx-16" value="List" style="edgeLabel;html=1;align=center;verticalAlign=middle;resizable=0;points=[];" vertex="1" connectable="0" parent="rhfyWi41nhmpNJ9Z3OVx-13">
          <mxGeometry x="0.0118" y="-1" relative="1" as="geometry">
            <mxPoint as="offset" />
          </mxGeometry>
        </mxCell>
        <mxCell id="rhfyWi41nhmpNJ9Z3OVx-4" value="Option" style="rhombus;whiteSpace=wrap;html=1;" vertex="1" parent="WIyWlLk6GJQsqaUBKTNV-1">
          <mxGeometry x="1120" y="-900" width="130" height="90" as="geometry" />
        </mxCell>
        <mxCell id="rhfyWi41nhmpNJ9Z3OVx-21" style="edgeStyle=orthogonalEdgeStyle;rounded=0;orthogonalLoop=1;jettySize=auto;html=1;exitX=0.5;exitY=1;exitDx=0;exitDy=0;" edge="1" parent="WIyWlLk6GJQsqaUBKTNV-1" source="rhfyWi41nhmpNJ9Z3OVx-6" target="rhfyWi41nhmpNJ9Z3OVx-20">
          <mxGeometry relative="1" as="geometry">
            <Array as="points">
              <mxPoint x="1025" y="-630" />
              <mxPoint x="1185" y="-630" />
            </Array>
          </mxGeometry>
        </mxCell>
        <mxCell id="rhfyWi41nhmpNJ9Z3OVx-6" value="Add Books" style="shape=parallelogram;perimeter=parallelogramPerimeter;whiteSpace=wrap;html=1;fixedSize=1;" vertex="1" parent="WIyWlLk6GJQsqaUBKTNV-1">
          <mxGeometry x="960" y="-790" width="130" height="40" as="geometry" />
        </mxCell>
        <mxCell id="rhfyWi41nhmpNJ9Z3OVx-22" style="edgeStyle=orthogonalEdgeStyle;rounded=0;orthogonalLoop=1;jettySize=auto;html=1;exitX=0.5;exitY=1;exitDx=0;exitDy=0;" edge="1" parent="WIyWlLk6GJQsqaUBKTNV-1" source="rhfyWi41nhmpNJ9Z3OVx-8" target="rhfyWi41nhmpNJ9Z3OVx-20">
          <mxGeometry relative="1" as="geometry" />
        </mxCell>
        <mxCell id="rhfyWi41nhmpNJ9Z3OVx-8" value="Remove Books" style="shape=parallelogram;perimeter=parallelogramPerimeter;whiteSpace=wrap;html=1;fixedSize=1;" vertex="1" parent="WIyWlLk6GJQsqaUBKTNV-1">
          <mxGeometry x="1040" y="-720" width="130" height="40" as="geometry" />
        </mxCell>
        <mxCell id="rhfyWi41nhmpNJ9Z3OVx-23" style="edgeStyle=orthogonalEdgeStyle;rounded=0;orthogonalLoop=1;jettySize=auto;html=1;exitX=0.5;exitY=1;exitDx=0;exitDy=0;entryX=0.5;entryY=0;entryDx=0;entryDy=0;" edge="1" parent="WIyWlLk6GJQsqaUBKTNV-1" source="rhfyWi41nhmpNJ9Z3OVx-9" target="rhfyWi41nhmpNJ9Z3OVx-20">
          <mxGeometry relative="1" as="geometry" />
        </mxCell>
        <mxCell id="rhfyWi41nhmpNJ9Z3OVx-9" value="List Books" style="shape=parallelogram;perimeter=parallelogramPerimeter;whiteSpace=wrap;html=1;fixedSize=1;" vertex="1" parent="WIyWlLk6GJQsqaUBKTNV-1">
          <mxGeometry x="1200" y="-720" width="130" height="40" as="geometry" />
        </mxCell>
        <mxCell id="rhfyWi41nhmpNJ9Z3OVx-24" style="edgeStyle=orthogonalEdgeStyle;rounded=0;orthogonalLoop=1;jettySize=auto;html=1;exitX=0.5;exitY=1;exitDx=0;exitDy=0;" edge="1" parent="WIyWlLk6GJQsqaUBKTNV-1" source="rhfyWi41nhmpNJ9Z3OVx-10" target="rhfyWi41nhmpNJ9Z3OVx-20">
          <mxGeometry relative="1" as="geometry">
            <Array as="points">
              <mxPoint x="1355" y="-630" />
              <mxPoint x="1185" y="-630" />
            </Array>
          </mxGeometry>
        </mxCell>
        <mxCell id="rhfyWi41nhmpNJ9Z3OVx-10" value="See Profits" style="shape=parallelogram;perimeter=parallelogramPerimeter;whiteSpace=wrap;html=1;fixedSize=1;" vertex="1" parent="WIyWlLk6GJQsqaUBKTNV-1">
          <mxGeometry x="1290" y="-790" width="130" height="40" as="geometry" />
        </mxCell>
        <mxCell id="rhfyWi41nhmpNJ9Z3OVx-34" style="edgeStyle=orthogonalEdgeStyle;rounded=0;orthogonalLoop=1;jettySize=auto;html=1;exitX=0;exitY=0.5;exitDx=0;exitDy=0;" edge="1" parent="WIyWlLk6GJQsqaUBKTNV-1" source="rhfyWi41nhmpNJ9Z3OVx-20" target="rhfyWi41nhmpNJ9Z3OVx-29">
          <mxGeometry relative="1" as="geometry" />
        </mxCell>
        <mxCell id="rhfyWi41nhmpNJ9Z3OVx-38" value="&lt;font style=&quot;font-size: 18px;&quot;&gt;No&lt;/font&gt;" style="edgeLabel;html=1;align=center;verticalAlign=middle;resizable=0;points=[];" vertex="1" connectable="0" parent="rhfyWi41nhmpNJ9Z3OVx-34">
          <mxGeometry x="-0.3249" y="4" relative="1" as="geometry">
            <mxPoint y="-4" as="offset" />
          </mxGeometry>
        </mxCell>
        <mxCell id="rhfyWi41nhmpNJ9Z3OVx-35" style="edgeStyle=orthogonalEdgeStyle;rounded=0;orthogonalLoop=1;jettySize=auto;html=1;exitX=1;exitY=0.5;exitDx=0;exitDy=0;entryX=1;entryY=0.5;entryDx=0;entryDy=0;" edge="1" parent="WIyWlLk6GJQsqaUBKTNV-1" source="rhfyWi41nhmpNJ9Z3OVx-20" target="rhfyWi41nhmpNJ9Z3OVx-2">
          <mxGeometry relative="1" as="geometry">
            <Array as="points">
              <mxPoint x="1470" y="-555" />
              <mxPoint x="1470" y="-960" />
            </Array>
          </mxGeometry>
        </mxCell>
        <mxCell id="rhfyWi41nhmpNJ9Z3OVx-37" value="&lt;font style=&quot;font-size: 18px;&quot;&gt;Yes&lt;/font&gt;" style="edgeLabel;html=1;align=center;verticalAlign=middle;resizable=0;points=[];" vertex="1" connectable="0" parent="rhfyWi41nhmpNJ9Z3OVx-35">
          <mxGeometry x="-0.7969" y="1" relative="1" as="geometry">
            <mxPoint as="offset" />
          </mxGeometry>
        </mxCell>
        <mxCell id="rhfyWi41nhmpNJ9Z3OVx-20" value="Continue" style="rhombus;whiteSpace=wrap;html=1;" vertex="1" parent="WIyWlLk6GJQsqaUBKTNV-1">
          <mxGeometry x="1125" y="-600" width="120" height="90" as="geometry" />
        </mxCell>
        <mxCell id="rhfyWi41nhmpNJ9Z3OVx-29" value="End" style="ellipse;whiteSpace=wrap;html=1;" vertex="1" parent="WIyWlLk6GJQsqaUBKTNV-1">
          <mxGeometry x="720" y="-390" width="120" height="50" as="geometry" />
        </mxCell>
      </root>
    </mxGraphModel>
  </diagram>
</mxfile>
